<svg width="22" height="22" viewBox="0 0 22 22" fill="none" xmlns="http://www.w3.org/2000/svg">
<path fill-rule="evenodd" clip-rule="evenodd" d="M0 1C0 0.447715 0.447715 0 1 0H9C9.55229 0 10 0.447715 10 1V9C10 9.55229 9.55229 10 9 10H1C0.447715 10 0 9.55229 0 9V1ZM2 2V8H8V2H2Z" fill="#0D0E0D"/>
<path fill-rule="evenodd" clip-rule="evenodd" d="M12 1C12 0.447715 12.4477 0 13 0H21C21.5523 0 22 0.447715 22 1V9C22 9.55229 21.5523 10 21 10H13C12.4477 10 12 9.55229 12 9V1ZM14 2V8H20V2H14Z" fill="#0D0E0D"/>
<path fill-rule="evenodd" clip-rule="evenodd" d="M0 13C0 12.4477 0.447715 12 1 12H9C9.55229 12 10 12.4477 10 13V21C10 21.5523 9.55229 22 9 22H1C0.447715 22 0 21.5523 0 21V13ZM2 14V20H8V14H2Z" fill="#0D0E0D"/>
<path fill-rule="evenodd" clip-rule="evenodd" d="M12 13C12 12.4477 12.4477 12 13 12H21C21.5523 12 22 12.4477 22 13V21C22 21.5523 21.5523 22 21 22H13C12.4477 22 12 21.5523 12 21V13ZM14 14V20H20V14H14Z" fill="#0D0E0D"/>
</svg>
