<svg width="20" height="20" viewBox="0 0 20 20" fill="none" xmlns="http://www.w3.org/2000/svg">
<path fill-rule="evenodd" clip-rule="evenodd" d="M2.24114 4.11612C2.47556 3.8817 2.7935 3.75 3.12502 3.75H16.875C17.2065 3.75 17.5245 3.8817 17.7589 4.11612C17.9933 4.35054 18.125 4.66848 18.125 5V15C18.125 15.3315 17.9933 15.6495 17.7589 15.8839C17.5245 16.1183 17.2065 16.25 16.875 16.25H6.48944L6.40829 16.2785L3.92192 18.3643C3.73982 18.515 3.5187 18.611 3.28425 18.6411C3.0498 18.6712 2.81162 18.6342 2.59734 18.5345C2.38306 18.4347 2.20146 18.2762 2.07361 18.0774C1.94577 17.8786 1.87691 17.6476 1.87504 17.4112L1.875 17.4062L1.87502 5C1.87502 4.66848 2.00672 4.35054 2.24114 4.11612ZM16.875 5L3.12502 5V17.4013L5.69208 15.2477C5.74972 15.1994 5.81561 15.1618 5.88659 15.1369L6.17565 15.0353C6.24222 15.0119 6.31227 15 6.38283 15H16.875V5Z" fill="#A3A3A3"/>
<path fill-rule="evenodd" clip-rule="evenodd" d="M6.87502 8.75C6.87502 8.40482 7.15484 8.125 7.50002 8.125H12.5C12.8452 8.125 13.125 8.40482 13.125 8.75C13.125 9.09518 12.8452 9.375 12.5 9.375H7.50002C7.15484 9.375 6.87502 9.09518 6.87502 8.75Z" fill="#A3A3A3"/>
<path fill-rule="evenodd" clip-rule="evenodd" d="M6.87502 11.25C6.87502 10.9048 7.15484 10.625 7.50002 10.625H12.5C12.8452 10.625 13.125 10.9048 13.125 11.25C13.125 11.5952 12.8452 11.875 12.5 11.875H7.50002C7.15484 11.875 6.87502 11.5952 6.87502 11.25Z" fill="#A3A3A3"/>
</svg>
