<svg width="20" height="20" viewBox="0 0 20 20" fill="none" xmlns="http://www.w3.org/2000/svg">
<path fill-rule="evenodd" clip-rule="evenodd" d="M9.26949 1.47546C9.48358 1.32552 9.73863 1.24509 10 1.24509C10.2614 1.24509 10.5164 1.32552 10.7305 1.47546C10.9417 1.62336 11.103 1.83184 11.1931 2.07325L12.909 6.39432L12.9141 6.40767C12.9157 6.41194 12.9185 6.41566 12.9222 6.41836C12.9258 6.42107 12.9302 6.42265 12.9347 6.42292L12.9386 6.42314L17.548 6.72003C18.7445 6.79773 19.1534 8.29554 18.2826 9.01945C18.2825 9.01959 18.2823 9.01972 18.2821 9.01986L14.7519 11.9643L14.7498 11.966C14.7419 11.9726 14.736 11.9813 14.7327 11.9911C14.7296 12.0006 14.7291 12.0108 14.7314 12.0206C14.7315 12.0208 14.7315 12.0211 14.7316 12.0213L15.8713 16.5022C16.1473 17.5915 14.9711 18.5725 13.9478 17.927L13.9462 17.9261L10.0087 15.4261C10.0062 15.4245 10.003 15.4234 10 15.4234C9.99703 15.4234 9.99412 15.4242 9.99162 15.4258L9.99063 15.4265L6.32774 17.746C6.32755 17.7461 6.32735 17.7463 6.32716 17.7464C5.20467 18.4601 3.90819 17.375 4.21463 16.174C4.21458 16.1741 4.21467 16.1738 4.21463 16.174L5.2684 12.0213C5.26846 12.0211 5.26851 12.0209 5.26857 12.0206C5.27086 12.0108 5.27041 12.0006 5.26726 11.9911C5.26403 11.9813 5.25811 11.9726 5.25017 11.966L5.24812 11.9643L1.71788 9.01986C1.71771 9.01972 1.71754 9.01958 1.71737 9.01944C0.846567 8.29552 1.25516 6.79775 2.45169 6.72005L7.06526 6.42291C7.06981 6.42264 7.07418 6.42107 7.07784 6.41836C7.0815 6.41566 7.08429 6.41194 7.08588 6.40767L7.091 6.39432L8.80695 2.07325C8.89705 1.83184 9.0583 1.62336 9.26949 1.47546ZM10.6791 14.371C10.679 14.3709 10.6792 14.3711 10.6791 14.371L14.6147 16.8698C14.6145 16.8697 14.6149 16.8699 14.6147 16.8698C14.6218 16.8742 14.6265 16.876 14.6277 16.8764C14.6294 16.876 14.6348 16.8745 14.6422 16.8689C14.6517 16.8617 14.6577 16.8528 14.6605 16.8455C14.6617 16.8422 14.6625 16.8386 14.6628 16.8342C14.663 16.8299 14.6629 16.8221 14.6598 16.8098C14.6598 16.8098 14.6598 16.8099 14.6598 16.8098L13.5184 12.3224C13.4592 12.0838 13.4686 11.8333 13.5456 11.5998C13.6223 11.3668 13.7633 11.1602 13.9522 11.0036C13.9525 11.0033 13.9529 11.003 13.9533 11.0027L17.4835 8.05825C17.4908 8.05217 17.4939 8.04782 17.4952 8.04573C17.4967 8.04343 17.4979 8.04075 17.4989 8.03705C17.5011 8.02862 17.5019 8.01408 17.4967 7.99729C17.4915 7.98055 17.4838 7.97241 17.4816 7.97049C17.4808 7.96985 17.4806 7.96975 17.4803 7.96965C17.4802 7.96962 17.4766 7.96805 17.4675 7.96744C17.4675 7.96743 17.4676 7.96744 17.4675 7.96744L12.8621 7.67081C12.8614 7.67076 12.8607 7.67072 12.8599 7.67068C12.6137 7.65592 12.3771 7.56999 12.1788 7.4233C11.9821 7.27782 11.8316 7.07882 11.7451 6.85014L10.0285 2.52754C10.0263 2.52189 10.0241 2.51622 10.022 2.51051C10.0204 2.50599 10.0174 2.50209 10.0134 2.49933C10.0095 2.49657 10.0048 2.49509 10 2.49509C9.99519 2.49509 9.9905 2.49657 9.98656 2.49933C9.98262 2.50209 9.97962 2.50599 9.97798 2.51051C9.9759 2.51622 9.97374 2.52189 9.9715 2.52754L8.25494 6.85014C8.16842 7.07882 8.01787 7.27782 7.82121 7.4233C7.62291 7.56999 7.38629 7.65592 7.1401 7.67068L2.53269 7.96742C2.53262 7.96743 2.53276 7.96742 2.53269 7.96742C2.52359 7.96804 2.51983 7.9696 2.51976 7.96963C2.51948 7.96974 2.51924 7.96982 2.51844 7.97049C2.51618 7.97241 2.50849 7.98055 2.5033 7.99729C2.49811 8.01408 2.49889 8.02862 2.50111 8.03705C2.50208 8.04075 2.50333 8.04343 2.50478 8.04573C2.5061 8.04782 2.50919 8.05217 2.5165 8.05825L2.51751 8.05909L6.04671 11.0027C6.04712 11.003 6.04753 11.0034 6.04794 11.0037C6.23678 11.1602 6.37768 11.3668 6.45445 11.5998C6.5314 11.8333 6.54081 12.0838 6.48161 12.3224L6.4808 12.3256L5.42585 16.4829C5.40327 16.5712 5.43442 16.6397 5.49151 16.6831C5.52073 16.7053 5.55024 16.7148 5.57356 16.7165C5.59285 16.7178 5.61956 16.715 5.65664 16.6914L9.32089 14.371C9.32121 14.3708 9.32154 14.3706 9.32187 14.3704C9.52464 14.2417 9.75984 14.1734 10 14.1734C10.2404 14.1734 10.4762 14.2421 10.6791 14.371Z" fill="#A3A3A3"/>
</svg>
