<svg width="12" height="12" viewBox="0 0 12 12" fill="none" xmlns="http://www.w3.org/2000/svg">
<path fill-rule="evenodd" clip-rule="evenodd" d="M4.14109 3.76609C4.28753 3.61964 4.52497 3.61964 4.67141 3.76609L6.64016 5.73484C6.78661 5.88128 6.78661 6.11872 6.64016 6.26516L4.67141 8.23392C4.52497 8.38036 4.28753 8.38036 4.14109 8.23392C3.99464 8.08747 3.99464 7.85003 4.14109 7.70358L5.84467 6L4.14109 4.29641C3.99464 4.14997 3.99464 3.91253 4.14109 3.76609Z" fill="#6E6E6E"/>
<path fill-rule="evenodd" clip-rule="evenodd" d="M0.75 6C0.75 5.79289 0.917893 5.625 1.125 5.625H6.375C6.58211 5.625 6.75 5.79289 6.75 6C6.75 6.20711 6.58211 6.375 6.375 6.375H1.125C0.917893 6.375 0.75 6.20711 0.75 6Z" fill="#6E6E6E"/>
<path fill-rule="evenodd" clip-rule="evenodd" d="M6 1.875C6 1.66789 6.16789 1.5 6.375 1.5H9C9.19891 1.5 9.38968 1.57902 9.53033 1.71967C9.67098 1.86032 9.75 2.05109 9.75 2.25V9.75C9.75 9.94891 9.67098 10.1397 9.53033 10.2803C9.38968 10.421 9.19891 10.5 9 10.5H6.375C6.16789 10.5 6 10.3321 6 10.125C6 9.91789 6.16789 9.75 6.375 9.75H9V2.25L6.375 2.25C6.16789 2.25 6 2.08211 6 1.875Z" fill="#6E6E6E"/>
</svg>
