<svg width="12" height="12" viewBox="0 0 12 12" fill="none" xmlns="http://www.w3.org/2000/svg">
<path fill-rule="evenodd" clip-rule="evenodd" d="M7.89108 3.76609C8.03753 3.61964 8.27497 3.61964 8.42142 3.76609L10.3902 5.73484C10.5366 5.88128 10.5366 6.11872 10.3902 6.26516L8.42142 8.23392C8.27497 8.38036 8.03753 8.38036 7.89108 8.23392C7.74464 8.08747 7.74464 7.85003 7.89108 7.70358L9.59467 6L7.89108 4.29641C7.74464 4.14997 7.74464 3.91253 7.89108 3.76609Z" fill="#6E6E6E"/>
<path fill-rule="evenodd" clip-rule="evenodd" d="M4.5 6C4.5 5.79289 4.66789 5.625 4.875 5.625H10.125C10.3321 5.625 10.5 5.79289 10.5 6C10.5 6.20711 10.3321 6.375 10.125 6.375H4.875C4.66789 6.375 4.5 6.20711 4.5 6Z" fill="#6E6E6E"/>
<path fill-rule="evenodd" clip-rule="evenodd" d="M1.71967 1.71967C1.86032 1.57902 2.05109 1.5 2.25 1.5H4.875C5.08211 1.5 5.25 1.66789 5.25 1.875C5.25 2.08211 5.08211 2.25 4.875 2.25L2.25 2.25L2.25 9.75H4.875C5.08211 9.75 5.25 9.91789 5.25 10.125C5.25 10.3321 5.08211 10.5 4.875 10.5H2.25C2.05109 10.5 1.86032 10.421 1.71967 10.2803C1.57902 10.1397 1.5 9.94891 1.5 9.75V2.25C1.5 2.05109 1.57902 1.86032 1.71967 1.71967Z" fill="#6E6E6E"/>
</svg>
